<svg xmlns="http://www.w3.org/2000/svg" fill="none" viewBox="0 0 16 16"><style>@media(prefers-color-scheme:dark){#a{display:unset}#b{display:none}#c{display:none}}</style><path id="a" display="none" fill="#fff" fill-rule="evenodd" d="M8 16a8 8 0 0 0 7.36-11.14c-.76 1.1-1.7 2.3-2.8 3.61a34.7 34.7 0 0 1-4.5 4.45c-1.6 1.3-2.9 2-3.95 2.07A7.99 7.99 0 0 0 8 16Zm-5.75-2.44A8 8 0 1 1 14.87 3.9l-.58.65a54.88 54.88 0 0 1-6.08 5.92c-1.47 1.1-2.83 1.66-4.08 1.66-.2-.1-.3-.35-.3-.75 0-.43.13-.97.4-1.63.26-.67.45-1.01.57-1.01.07 0 .14.01.2.04l.07.07c.13.38.33.57.6.57.27 0 .83-.32 1.67-.95a12.6 12.6 0 0 0 2.45-2.53 5 5 0 0 0 1.16-2.83c0-.45-.17-.92-.52-1.4C10.1 1.25 9.74 1 9.35 1c-.9 0-1.92.54-3.07 1.62a14.27 14.27 0 0 0-3.02 4.12A10.47 10.47 0 0 0 2 11.45c0 .86.08 1.57.25 2.11ZM7 4.96C8.02 3.6 8.74 2.92 9.17 2.92c.1 0 .15.07.15.2 0 .45-.54 1.29-1.63 2.52C6.62 6.87 5.9 7.5 5.54 7.5c-.05 0-.08-.02-.08-.07 0-.3.51-1.12 1.54-2.46Z" clip-rule="evenodd" /><circle id="b" cx="8" cy="8" r="8" fill="#000" /><path id="c" fill="#fff" fill-rule="evenodd" d="m14.87 3.9-.58.65a54.87 54.87 0 0 1-6.08 5.92c-1.47 1.1-2.83 1.66-4.08 1.66-.2-.1-.3-.35-.3-.75 0-.43.13-.97.4-1.63.26-.67.45-1.01.57-1.01.11 0 .2.03.27.1.13.39.33.58.6.58.27 0 .83-.32 1.67-.95a12.6 12.6 0 0 0 2.45-2.53 5 5 0 0 0 1.16-2.83c0-.45-.17-.92-.52-1.4C10.1 1.25 9.74 1 9.35 1c-.9 0-1.92.54-3.07 1.62a14.27 14.27 0 0 0-3.02 4.12A10.47 10.47 0 0 0 2 11.45c0 .86.08 1.57.25 2.11A8.03 8.03 0 0 0 4.11 15c1.04-.08 2.36-.77 3.95-2.07 1.7-1.4 3.2-2.89 4.5-4.45 1.1-1.3 2.04-2.51 2.8-3.6-.14-.34-.3-.66-.49-.97ZM7 4.96C8.02 3.6 8.74 2.92 9.17 2.92c.1 0 .15.07.15.2 0 .45-.54 1.29-1.63 2.52C6.62 6.87 5.9 7.5 5.54 7.5c-.05 0-.08-.02-.08-.07 0-.3.51-1.12 1.54-2.46Z" clip-rule="evenodd" /></svg>