<svg xmlns="http://www.w3.org/2000/svg" fill="none" viewBox="0 0 700 60"><path fill="#000" fill-rule="evenodd" d="M269.8 0c2.98 0 4.7.25 5.16.76 0 .17-2.87 1.37-8.61 3.61L242.9 13.5a987.16 987.16 0 0 0-25.52 10.26c-.46.13-.69.3-.69.5 0 .22.12.32.35.32.34 0 .74-.08 1.2-.25l6.55-1.9c4.72-1.1 9.89-2.07 15.52-2.92 5.75-.84 10.52-1.26 14.31-1.26 2.3.25 4.43.84 6.38 1.77 1.04.38 1.55.82 1.55 1.33 0 1.52-5.11 3.47-15.34 5.83a162.4 162.4 0 0 1-27.93 4.25c-.12.04-.18.08-.18.12 0 .34 2.7 1.54 8.1 3.61 5.53 2.03 9.78 3.36 12.77 4 2.41.42 3.96.63 4.65.63.46.08.7.19.7.32 0 .12-.35.3-1.04.5-2.65.8-5.35 1.2-8.1 1.2a88.3 88.3 0 0 1-5.7-.12 89.2 89.2 0 0 1-2.75-.32c-.92-.12-2.07-.46-3.45-1.01l-3.97-1.59c-1.26-.5-3.39-1.39-6.38-2.66-2.99-1.3-6.09-2.6-9.3-3.86a3.16 3.16 0 0 0-1.56-.38c-.57 0-1.15.1-1.72.32-7.13 1.98-11.84 4.18-14.14 6.58-.12.39-.8.58-2.07.58h-.17c-4.71 0-7.88-.93-9.48-2.8 0-.41.51-1 1.55-1.77l.4-.22c-9.53 2.62-16.84 4.22-21.92 4.79-2.07.2-4.31.31-6.73.31-8.84 0-13.27-1.73-13.27-5.2 0-1.22 1.66-2.92 5-5.1a500.7 500.7 0 0 1-21.38 6.06c-11.38 2.95-19.66 4.43-24.83 4.43-8.05 0-12.07-1.48-12.07-4.43 0-1.6 1.44-3.15 4.31-4.63 2.99-1.52 9.2-3.55 18.62-6.08-1.95 0-4.6-.17-7.93-.5a31.03 31.03 0 0 1-5.66-1.03c-5 1.7-10.98 3.53-17.96 5.52a390.27 390.27 0 0 1-31.38 7.48c-11.84 2.32-21.5 3.48-28.96 3.48C4.43 39.66 0 37.68 0 33.71c0-2.5 2.93-5.14 8.8-7.92 5.97-2.83 12.98-5.14 21.03-6.9 8.04-1.83 15.17-2.73 21.38-2.73 2.75 0 5.28.4 7.58 1.2 2.41.8 3.62 1.58 3.62 2.34 0 1.4-2.7 2.98-8.1 4.76-5.4 1.73-11.1 3.14-17.07 4.24-5.86 1.06-9.77 1.59-11.72 1.59-1.84 0-3.22-.32-4.14-.96a7.45 7.45 0 0 0-1.9-.19c-.8 0-2.12.57-3.96 1.72-1.84 1.1-2.76 2-2.76 2.72 0 .68.69 1.1 2.07 1.27 8.73 0 18.21-.93 28.44-2.8 6.15-1.13 13.7-2.78 22.65-4.94.37-.14.81-.28 1.32-.44 6.32-1.6 12.93-3.33 19.83-5.2-3.68-.92-6.04-1.83-7.07-2.72-.34-.3-.52-.5-.52-.63 0-.84.75-1.4 2.24-1.65 1.5-.3 3.91-.44 7.25-.44 1.26 0 5 .57 11.2 1.71 6.2 1.14 10.12 1.71 11.72 1.71 1.73 0 4.09-.17 7.07-.5 3-.39 5.35-.58 7.07-.58 1.84 0 3.16.15 3.97.45 2.87 1.4 4.3 2.24 4.3 2.53 0 .3-.4.55-1.2.76l-7.07 1.78c-3.9 1-7.75 2.04-11.55 3.1-3.8 1.06-7.36 2.24-10.69 3.55-3.33 1.3-5 2.36-5 3.17 0 .12.29.19.86.19 5.66 0 23.51-3.84 53.56-11.51l.76-.34c4.25-1.94 7.07-3.02 8.44-3.23 2.07-.47 4.31-.7 6.73-.7 2.41 0 4.71.17 6.9.5.69.13 1.03.3 1.03.51 0 .22-.57.53-1.72.95-1.04.43-2.7 1.08-5 1.97-2.19.89-5.52 2.43-10 4.62-4.37 2.16-7.3 3.97-8.8 5.45-.92.6-1.38 1.12-1.38 1.59 0 .46.7.7 2.07.7.8 0 2.19-.13 4.14-.39a856.1 856.1 0 0 0 38.6-8.34c3.65-1.7 7.27-3.26 10.85-4.7 9.42-3.77 26.15-9.91 50.17-18.45 2.3-.67 3.8-1.12 4.48-1.33.7-.2 1.38-.4 2.07-.57.8-.2 1.44-.33 1.9-.38.92-.17 2.07-.25 3.45-.25h1.9Zm-23.97 21.67c-2.3.04-6.15.63-11.55 1.77a299.26 299.26 0 0 0-14.31 3.42l-6.2 1.65c-.47.17-.7.32-.7.44 0 .09.17.13.52.13 2.76 0 8.9-1.05 18.45-3.17 9.54-2.15 14.3-3.48 14.3-3.99l-.51-.25Zm163.82 14.95c3.79 0 9.54-.8 17.24-2.4a229.41 229.41 0 0 0 20.86-5.33c6.2-1.9 9.3-3.23 9.3-3.99 0-.13-.16-.19-.5-.19-2.54 0-7.88.95-16.04 2.85a487.73 487.73 0 0 0-22.41 5.7c-6.9 1.9-10.35 2.94-10.35 3.1 0 .18.63.26 1.9.26Zm43.79-26.74c1.26 0 2.64.36 4.14 1.08 1.49.68 2.24 1.18 2.24 1.52 0 .34-.18.57-.52.7a511.02 511.02 0 0 0-23.1 7.98 423.46 423.46 0 0 0-16.55 6.46l-5.18 2.29c-.92.33-1.38.57-1.38.7 0 .12.12.18.35.18.23 0 .52-.06.86-.19l1.55-.44c18.85-6.17 33.5-9.25 43.97-9.25 1.38 0 2.64.15 3.79.44 3.9 1.18 5.86 2.54 5.86 4.06 0 1.48-2.93 3.38-8.8 5.7-5.74 2.32-12.86 4.37-21.37 6.14-8.5 1.74-15.63 2.6-21.38 2.6-5.63 0-9.37-.55-11.2-1.65l-1.9-1a1.59 1.59 0 0 0-.52-.07c-2.53 0-10.86 2.95-25 8.87-14.25 5.91-23.39 10.2-27.41 12.86-.46.76-1.38 1.14-2.76 1.14-.69 0-1.32-.08-1.9-.25l-7.75-2.22c-.46-.09-.7-.28-.7-.57 0-.5 8.74-4.67 26.21-12.48 11.41-5.11 23.2-10.2 35.36-15.25l-6.2 1.88a300.68 300.68 0 0 1-22.25 5.7c-7.93 1.73-14.08 2.6-18.45 2.6-10.8 0-16.2-2.39-16.2-7.16 0-.38.4-.72 1.2-1.01.92-.34 2.07-.51 3.45-.51 0 .21.29.55.86 1.01.7.43 1.38.78 2.07 1.08 2.07.72 5.06 1.08 8.97 1.08 4.02 0 7.7-.89 11.03-2.66 3.45-1.82 5.86-3.64 7.24-5.45 1.38-1.86 2.07-3.34 2.07-4.44 0-.3-.63-.44-1.9-.44-1.14 0-2.52.23-4.13.7L345.52 28a27 27 0 0 1-5.51.5c-2.07 0-3.1-.27-3.1-.82 0-.38.1-.64.34-.76.34-.13 1.2-.34 2.58-.64 8.5-2.15 20.12-5.66 34.83-10.51a10.76 10.76 0 0 1 4.65-1.27c1.38 0 3.68.17 6.9.5 3.22.3 4.83.66 4.83 1.08 0 2.54-.64 4.84-1.9 6.9a17.98 17.98 0 0 1-3.96 4.76 13.59 13.59 0 0 0-1.9 1.71c0 .09.11.13.34.13.23 0 .7-.06 1.38-.2 8.62-1.6 19.6-4.22 32.93-7.85l4-1.1c17.7-7.04 28.2-10.56 31.5-10.56Zm44.75 21.93-1.38 4.05c0 1.31.46 2.22 1.38 2.73.92.5 2.47.76 4.65.76 2.19 0 7.7-1.17 16.56-3.49a470.85 470.85 0 0 0 16.28-4.64 5.02 5.02 0 0 0-1.35 3.25c0 3.46 4.43 5.2 13.28 5.2 7.47 0 17.12-1.17 28.96-3.5a406.14 406.14 0 0 0 28.41-6.63c-1.7 1.43-2.56 2.82-2.56 4.17 0 3.97 4.42 5.95 13.27 5.95 7.47 0 17.13-1.16 28.97-3.48a390.32 390.32 0 0 0 31.38-7.48 326.6 326.6 0 0 0 22.4-7.1c1.04-.33 1.56-.71 1.56-1.14 0-.42-.52-.78-1.55-1.07-.46.12-2.01.53-4.66 1.2l-5.69 1.52c-18.04 4.73-32.18 8.05-42.4 9.95a159.84 159.84 0 0 1-28.46 2.79c-1.38-.17-2.07-.6-2.07-1.27 0-.72.93-1.63 2.76-2.72 1.84-1.14 3.16-1.72 3.97-1.72.8 0 1.44.07 1.9.2.92.63 2.3.95 4.13.95 1.96 0 5.87-.53 11.73-1.59 5.97-1.1 11.66-2.51 17.07-4.24 5.4-1.78 8.1-3.36 8.1-4.76 0-.76-1.2-1.54-3.62-2.34-2.3-.8-4.83-1.2-7.59-1.2-6.2 0-13.33.9-21.38 2.72-3.48.77-6.78 1.64-9.87 2.6l-2.35.63c-18.62 4.86-32.64 8.2-42.07 10.01a142.28 142.28 0 0 1-26.9 2.73c-1.83 0-2.75-.45-2.75-1.33 0-1.9 4.42-4.57 13.27-7.99a89.87 89.87 0 0 1 27.93-5.89c.58 0 .86.1.86.32 0 .2-.11.4-.34.57-1.84.93-6.2 2.13-13.1 3.61-1.04.13-1.55.32-1.55.57 0 .63 1.49.95 4.48.95 7.12 0 13.16-.74 18.1-2.22 5.06-1.48 7.64-2.98 7.76-4.5l-.35-.63c-.11-.42-1.09-.84-2.93-1.27-1.84-.42-4.88-.63-9.13-.63-4.14 0-9.66.49-16.56 1.46-3.36.45-6.66.98-9.89 1.58a8.34 8.34 0 0 0-.22-.06l-1.35.37a176.3 176.3 0 0 0-8.36 1.85 85.07 85.07 0 0 0-9.27 2.82c-15.7 4.04-27.81 6.82-36.36 8.33.23-.8 1.61-1.86 4.14-3.17 1.5-.76 2.93-1.44 4.3-2.03 1.39-.63 3.69-1.65 6.9-3.04a529.4 529.4 0 0 0 8.45-3.74c1.61-.5 2.42-.97 2.42-1.4 0-.41-.35-.73-1.04-.94a7.26 7.26 0 0 0-2.07-.45 9.05 9.05 0 0 0-3.27-.76 8.9 8.9 0 0 0-3.1.64c-1.27-1.1-3-1.67-5.18-1.71-5.74 0-12.53.8-20.34 2.4-7.7 1.6-14.71 3.51-21.04 5.7a124.9 124.9 0 0 0-16.2 6.66c-4.6 2.24-6.9 3.9-6.9 5s.7 1.95 2.07 2.54c1.38.59 2.53.93 3.45 1.01.8.13 1.5.21 2.07.26 3.45 0 7.93-.72 13.45-2.16a149.3 149.3 0 0 0 11.9-3.48l5.68-2.22c.46-.17.75-.25.86-.25.23 0 .35.06.35.19Zm-6.38-1.71c-7.01 2.06-11.2 3.1-12.59 3.1-.23 0-.34-.04-.34-.13 0-.72 2.53-2.09 7.58-4.12a152.74 152.74 0 0 1 18.28-5.82c7.01-1.86 12.7-2.8 17.07-2.8.34 0 .52.05.52.13 0 .05-.23.15-.7.32l-9.65 3.1a626.59 626.59 0 0 1-20.17 6.22Zm160.6-10.71c-2.98 0-8.04 1.14-15.17 3.42-7.12 2.24-10.69 3.61-10.69 4.12 0 .08.18.12.52.12 2.53 0 7.53-1.03 15-3.1 7.59-2.07 11.38-3.49 11.38-4.25 0-.2-.35-.31-1.04-.31Zm-324.3 13.75c1.15 0 1.9.08 2.24.25 1.61.72 2.41 1.3 2.41 1.77 0 .43-.34.8-1.03 1.14-.69.3-1.55.66-2.59 1.08-.92.38-2.87.9-5.86 1.58a34.77 34.77 0 0 1-8.45 1.08c-2.06-.12-3.1-.59-3.1-1.4 0-1.26 2.07-2.48 6.2-3.67 4.14-1.22 7.54-1.83 10.18-1.83Zm-44.94-1.9a23.11 23.11 0 0 1-11.03 2.66c-3.91 0-6.9-.36-8.97-1.08a17.1 17.1 0 0 1-2.07-1.08c-.57-.46-.86-.8-.86-1.01-1.38 0-2.53.17-3.45.5-.8.3-1.2.64-1.2 1.02 0 4.77 5.4 7.16 16.2 7.16 4.37 0 10.52-.87 18.45-2.6a300.68 300.68 0 0 0 22.24-5.7c7.01-2.11 13.33-4.06 18.96-5.83 5.75-1.77 8.74-2.66 8.97-2.66 1.03-.34 1.55-.72 1.55-1.14 0-.42-.52-.78-1.55-1.08l-4.14 1.14c-13.33 3.63-24.3 6.25-32.93 7.86-.69.13-1.15.19-1.38.19-.23 0-.34-.04-.34-.13 0-.08.63-.65 1.9-1.7a18.3 18.3 0 0 0 3.96-4.76 12.99 12.99 0 0 0 1.9-6.9c0-.43-1.61-.79-4.83-1.08a75.29 75.29 0 0 0-6.9-.51c-1.38 0-2.93.42-4.65 1.27-14.71 4.85-26.32 8.36-34.83 10.51-1.38.3-2.24.51-2.59.64-.23.12-.34.38-.34.76 0 .55 1.03.82 3.1.82 2.07 0 3.91-.17 5.52-.5l22.59-6.4c1.6-.47 2.98-.7 4.13-.7 1.27 0 1.9.15 1.9.44 0 1.1-.69 2.58-2.07 4.44-1.38 1.81-3.8 3.63-7.24 5.45Zm-88-23.83a6.18 6.18 0 0 0-2.24-.25c-2.64 0-6.03.61-10.17 1.84-4.14 1.18-6.2 2.4-6.2 3.67 0 .8 1.03 1.27 3.1 1.4 2.75 0 5.57-.34 8.44-1.02a49.38 49.38 0 0 0 5.87-1.65l2.58-1.07c.7-.34 1.04-.72 1.04-1.14 0-.47-.8-1.06-2.42-1.78ZM34.83 22.81C41.95 20.53 47 19.39 50 19.39c.69 0 1.03.1 1.03.31 0 .76-3.79 2.18-11.38 4.25-7.47 2.07-12.47 3.1-15 3.1-.34 0-.51-.04-.51-.12 0-.51 3.56-1.88 10.69-4.12Z" clip-rule="evenodd"/></svg>