<svg xmlns="http://www.w3.org/2000/svg" fill="none" viewBox="0 0 192 192"><path fill="#33f" d="M98.37 26.4c-5.88 0-15.83 9.3-29.85 27.94C54.5 72.63 47.5 83.84 47.5 87.98c0 .69.34 1.03 1.02 1.03 4.97 0 14.81-8.45 29.51-25.36 14.93-16.9 22.39-28.46 22.39-34.67 0-1.72-.68-2.59-2.04-2.59ZM26.12 192C8.71 192 0 175.78 0 143.35 0 123 5.77 101.43 17.3 78.66c11.76-23.11 25.56-41.92 41.39-56.4C74.52 7.41 88.54 0 100.75 0c5.43 0 10.4 3.28 14.92 9.83 4.75 6.56 7.13 12.94 7.13 19.15 0 11.39-5.32 24.32-15.94 38.82-10.63 14.14-21.83 25.7-33.59 34.67-11.53 8.62-19.22 12.94-23.07 12.94-3.61 0-6.33-2.6-8.14-7.77a4.7 4.7 0 0 0-3.73-1.55c-1.58 0-4.18 4.66-7.8 13.97-3.62 8.97-5.43 16.4-5.43 22.26 0 5.52 1.36 8.97 4.07 10.35 17.19 0 35.85-7.6 55.97-22.77 20.13-15.53 47.95-42.61 83.45-81.25l11.2-12.42c5.2-5.52 8.25-8.8 9.16-9.84a13.2 13.2 0 0 1 3.05 8.8c0 3.45-1.02 6.56-3.05 9.32-11.31 17.25-26.01 36.57-44.1 57.96-17.87 21.39-38.45 41.75-61.74 61.07C59.81 182.5 40.82 192 26.12 192Z"/></svg>
